<?xml version="1.0" encoding="UTF-8"?>
<svg version="1.1" viewBox="0 0 2048 1152" width="3840" height="2160" xmlns="http://www.w3.org/2000/svg">
<path transform="translate(22,171)" d="m0 0 5 1 13 8 21 10 20 8 19 5 18 3 27 3 13 1 56 2 249 1 29 2 20 3 23 4 28 7 27 10 15 6 16 8 22 12 14 9 14 10 13 10 11 10 8 7 19 19 9 11 8 10 13 18 18 30 13 28 8 21 3 8v5l-17 10-19 12-19 13-30 23-5 5-10 9-8 10h-2v2l11-4 23-6 24-3h30l6 2-4 4-16 12-15 14-10 12-12 16-10 17-8 16-8 19-6 20-4 16-3 19-3 23-2 24-1 6h2l2-6 10-14 9-10 4-4h2l-1 8-4 21-4 32-1 12v31l2 25-13 12-18 13-18 12-25 15-21 10-19 8-17 6-20 5-11 3-35 6-19 2-36 2h-400l-1-2 16-9 10-7 11-6 17-10 25-15 11-7 10-9 6-12 3-10 2-20v-442l-2-18-5-16-7-11-4-4v-2h-2v-2l-4-2-13-11-10-8-12-11-19-19-9-11-10-13-15-25-9-19-6-16-6-29zm334 219-1 1v372l1 1h94l20-2 25-6 14-5 16-8 11-7 10-8 9-8 7-8 10-13 9-16 7-16 7-22 6-33 1-13v-44l-2-18-4-23-4-15-7-20-10-19-9-13-11-13-13-12-15-10-16-8-15-6-22-5-22-3z" fill="#FE010A"/>
<path transform="translate(1238,169)" d="m0 0 7 3 9 6 20 10 14 6 25 7 26 4 28 3 45 2 257 1 36 3 11 1 17 3 27 5 28 8 22 8 18 8 19 10 21 12 17 12 13 10 13 11 16 15 16 17 11 14 11 15 9 14 8 13 8 16 10 22 10 27 8 30 4 20 4 28 1 16 1 5v38l-1 4-1 17-4 28-5 24-7 26-8 23-10 23-10 19-8 14-10 15-12 16-13 18-10 11-7 8-9 9-8 7-18 14-21 14-18 11-14 8-16 7-15 7-30 10-23 6-23 4-22 3-27 2-17 1h-30l2-5 7-10 7-15 4-11 3-17 1-7v-22l-2-15-4-15-8-18-6-10-8-11-11-12-8-7v-2l57-1 25-3 17-4 15-5 17-8 11-7 14-11 10-10 8-10 10-16 8-16 9-27 4-20 3-21v-56l-5-32-5-19-7-19-8-16-7-11-7-9-11-12-10-9-19-12-15-7-18-6-21-4-16-2-96-1v46l-3 1-15-2h-37l-18 3h-5l5-5 11-7 15-8 16-6 8-2h4v-2l-10-1-14-1h-18l-15 1-28 6-18 6-19 8-19 11-9 7h-2l2-6 7-10 8-10 13-15 2-3-15 6-16 8-18 10-9 6-3-1-1-46-2-15-5-16-9-13-11-8-12-9-13-11-15-14-7-7-7-8-13-16-12-19-6-10-9-20-6-17-4-17-1-7z" fill="#FE010A"/>
<path transform="translate(796,543)" d="m0 0 4 1 3 5v18l-4 21-4 29-1 21 19-19 11-9 11-8 18-13 21-13 16-9 16-8 7-2-1 4-8 14-5 13-4 16-2 21 8-7 12-9 15-8 12-4 7-1h15l10 2 6 3-1 3-5 5-5 4-9 11-12 15-11 17-9 16-8 17-4 10-6 21-2 9-2 12-1 26 1 15 5 23 5 15 10 19 9 12 10 11 11 8 13 8 16 6 17 3 6 1h13l20-4 20-8 18-10 17-13 13-11 17-17 22-28 12-19 3-5 4 2 16 15 13 12 8 7 14 12 13 11 12 11-2 6-12 23-10 17-9 14-13 19-11 13-9 11-7 7-7 8-15 14-14 11-14 10-16 10-16 8-13 6-23 8-25 6-25 3-12 1h-25l-21-2-20-4-24-7-19-8-16-8-13-8-16-12-14-12-9-11-11-14-12-14-6-2-5 5-1 3v10l5 21 1 5-4-1-11-12-9-11-12-17-6-10-8-16-8-20-6-19-4-19-3-23-1-14v-24l2-23 4-27 6-26 7-23v-12l-2-2-7 1-9 6-11 12h-2l2-16 6-23 6-15 9-19 11-18 12-16 12-14 22-22 11-9z" fill="#FE010A"/>
<path transform="translate(1068,576)" d="m0 0h2l1 10 5 10 8 8 10 6 15 4 26 3 13 4 7 6 4 7 4 15 3 15 5 10 5 3 39 4 13 4 11 6 13 11 11 9 13 11 16 13 11 9 13 11 11 9 32 26 10 6 12 5 7 1h9l9-2 12-6 8-7 8-14 2-7v-21l-1-6 4 1 10 8 8 9 8 13 6 14 4 18v24l-4 17-8 16-9 10-3 3 6 2h24l12-2 16-5 16-8 8-6 9-9 6-10 4-13v-19l-5-15-6-10-9-10-10-8-13-6-4-2 3-2h12l21 2 19 5 16 6 18 10 16 13 9 9 10 13 9 17 6 18 2 12v20l-3 15-5 15-8 15-8 11-9 10-10 10-11 8-16 9-8 4-16 6-21 4-10 1h-27l10 7 15 7 15 5 17 3 16 1 14-2 6-1-2 4-7 8-9 8-19 12-17 8-18 6-17 4-14 2h-31l-22-4-20-8-11-6-14-10-16-16-10-14-6-10-6-13-6-20-2-13v-6l-5 5-6 10-4 8-3 14v21l3 14 5 11 5 8 4 5v2l-9-3-10-5-14-10-6-5-7-8-9-12-8-16-5-20v-33l1-9v-34l-4-16-5-12-8-11-14-14-8-7-13-11-12-10-14-11-13-11-17-13-13-11-5-4-7-8-7-10-6-12-4-16-2-23-4-13-7-9-12-11-6-4-11-9-8-9-6-11-2-8v-16l3-10z" fill="#FE010A"/>
<path transform="translate(965,273)" d="m0 0h1l2 20 5 19 4 10 6 11 8 12 10 13 11 12 7 8 7 7 2 1v2l4 2 9 9 8 7 13 12 11 9 25 25 13 17 5 8-1-5-9-17-8-11-8-10-14-15-14-14-8-7-16-15-8-7-14-14-4-7-2-8v-29l4-18 5-12 2-3h2l2 18 4 16 9 19 10 15 8 10 11 13 29 29 11 9 15 15 5 4 7 8 10 11 11 15 8 14 4 8 4 10 4 18v23l12 7 6 8 2 5v7l8-3 9-7 8-9 4-6 2-1 1 4v18l-3 17-5 18-8 16-7 11-8 10-8 8-10 7-3 1-1-2 2-11-1-10-3-10-5-8-10-6-11-4-10-2-10-1-23-1 1-4 6-12 3-10-1-9-5-5-16-4h-38l-30 4-19 4-6 2 19 1 18 3 6 2-1 5-5 11-4 14v17l3 5 7 2 8-3 5-4 1 2-4 18-1 15 2 9 4 3 9 2 10-2h4l-1 5-10 13-10 9-14 9-15 7-16 5-11 2h-8v-2l9-5 8-8 10-14 3-6-13 4-9 1h-12v-4l6-5 7-11 4-8 3-9 1-5v-16l-4-13-7-11-8-7-14-7-5-2-10-2h-21l-16 4-10 4-4 1 3-9 7-12 11-14 14-14 13-9 10-6-4-2-22-6-17-4 5-5 12-7 21-8 19-5 22-4-17-1-25 2-26 6-12 4-15 7-12 7-10 8-7 8h11l24 5 7 2v3l-18 5-25 11-20 11-19 12-16 12-14 12-3 1 1-12 4-25v-16l-4-11-7-8-12-6-12-3h-25l-19 3h-5l5-6 13-10 14-9 16-9 12-7 14-7 18-10 10-8 6-7v-9l-5-10v-3h-2l-8-11-13-12-15-10-3-1 1-3h24l31 3 13 3 2 1-8-18-2-6-2-12v-21l2-13 4 1 6 11 8 11 14 14 13 10 24 15 25 14 11 7 15 10 13 11 8 8 6 9v2h2l-5-13-7-11-7-9-15-15-16-11-4-13-2-16v-24l2-21 3-13 5-17 7-13zm152 206 2 2v-2zm-43 4 1 7 5 14 7 11 9 8 8 4 12 1-1-6-7-12-11-13-10-8-11-6z" fill="#FE010A"/>
<path transform="translate(1e3 96)" d="m0 0h19l34 4 17 4 19 6 15 6 20 11 16 12 12 11 8 8 13 17 10 17 8 19 6 20 4 22 1 26-1 17-5 24-5 18-6 17-11 24-10 18-7 10-8 11-5 6-4-2-7-7-8-7-12-11-8-7-10-9-13-13-9-11-11-14-1-5 9-16 7-19 4-19v-32l-6-23-7-14-8-10-7-7-14-8-15-4-6-1h-13l-15 3-11 5-11 7-10 10-9 14-7 18-2 12v22l2 12v7l-4 20-2 16v36l1 10-5-1-13-8-12-9-13-11-10-11-7-10-6-9-8-17-6-16v-2h-2l-3 9-6 17-4 20-1 12v17l2 15 1 9-4-1-8-9-9-15-5-11-5-14-4-20-2-14v-31l4-27 5-17 6-16 8-16 6-10 9-12 18-21 20-16 12-8 11-6 18-8 23-7 14-3 15-2z" fill="#FE010A"/>
<path transform="translate(1568,545)" d="m0 0h4v198l-10-3-16-5-12-2-25-1-22 1-23 3h-6l-14-11-15-10-13-8-9-4 7 11 6 12 3 13v14l-3 13-5 9-4 5-11 6-5 1-13-1-10-5-1-2v-169l10-14 11-13 14-14 10-7 16-8 13-5 17-3h24l16 3 12 5 11 7 7 5 5-1 8-8 10-6z" fill="#FE010A"/>
<path transform="translate(1473,428)" d="m0 0h6v2l-14 8-10 8-7 8-1 9 3 3 11-1 25-8 16-4 14-2 21-1 21 2 18 4 21 7 16 7 19 11 14 10 6 4v2l5 2 17 17-2 2-12-2h-33l-22 3-26 6-16 5-21 9-12 7-5 1-9-6-11-5-17-4-12-1h-12l-17 2-13 3-19 8-16 10-13 12-9 10-11 14-14 19-12 18-11 18-8 14-10 18-11 23-7 15-5-2-14-12-11-8-13-11-10-7-15-7 1-5 9-12 14-18 9-10 7-8 14-15 15-15 8-7 10-9 14-11 19-14 19-12 22-12 15-7 15-6 20-6 23-4h6v-2l-22 1-27 5-14 4-21 7-24 11-17 9-16 10-14 10-14 11-16 15-12 13-1-2 5-15 12-25 10-16 12-17 9-11 11-13 15-15 10-8 15-11 6-4h3l-2 4-10 16-4 9v6l4 3 6-1 10-6 11-9 4-3h2l1-3 14-11 13-10 11-7 11-6 17-6z" fill="#FE010A"/>
<path transform="translate(1477,761)" d="m0 0 17 2 12 3 14 9 9 10 6 12 2 10-1 9-3 11-8 11-9 7-16 8-14 4h-8l3-9 4-16 1-5 1-20-1-14-4-16-5-12z" fill="#FE010A"/>
</svg>
